<?xml version="1.0" encoding="UTF-8"?>
<svg version="1.1" xmlns="http://www.w3.org/2000/svg" width="1080" height="1080">
<path d="M0 0 C356.4 0 712.8 0 1080 0 C1080 356.4 1080 712.8 1080 1080 C723.6 1080 367.2 1080 0 1080 C0 723.6 0 367.2 0 0 Z " fill="#FEFEFE" transform="translate(0,0)"/>
<path d="M0 0 C1.23564329 -0.00891337 1.23564329 -0.00891337 2.49624908 -0.0180068 C5.26103936 -0.03537145 8.02565632 -0.03839655 10.79049683 -0.04138184 C12.77171193 -0.0506396 14.75292347 -0.06068911 16.73413086 -0.07147217 C22.1233591 -0.09772797 27.51253748 -0.11061386 32.90181971 -0.11949348 C36.27429401 -0.12535926 39.64675478 -0.13357013 43.01922226 -0.14250183 C53.58583803 -0.16986602 64.15242276 -0.18918714 74.71907151 -0.19690561 C86.88661683 -0.2058433 99.05371012 -0.24082285 111.22111809 -0.2989068 C120.64136887 -0.3423017 130.06149332 -0.36232305 139.48184288 -0.36498785 C145.09961507 -0.36707427 150.7169628 -0.37867844 156.33462906 -0.41462708 C161.63224843 -0.44786454 166.92913087 -0.45176829 172.22681808 -0.43434906 C174.15757487 -0.43282236 176.0883735 -0.44130563 178.01902771 -0.46126556 C199.64523085 -0.67148932 219.26046259 5.50096322 235.35568237 20.58703613 C242.14106755 27.27235515 248.0000724 34.81847818 253.89547729 42.28088379 C254.39466675 42.90962402 254.8938562 43.53836426 255.40817261 44.18615723 C258.59304723 48.20035843 261.74777889 52.23750833 264.89547729 56.28088379 C271.20003978 64.36359684 277.57796725 72.37741902 284.05905151 80.31945801 C288.00778223 85.16621217 291.88402809 90.06446639 295.73141479 94.99182129 C299.23323976 99.46525087 302.80358894 103.8795558 306.39547729 108.28088379 C310.90242048 113.80347614 315.34332185 119.37057151 319.72921753 124.98962402 C323.24922875 129.48752225 326.84404618 133.92074081 330.45797729 138.34338379 C335.18513005 144.13083249 339.77387505 149.99907469 344.30563354 155.94104004 C347.78075779 160.45829447 351.40280692 164.85628718 355.00875854 169.26916504 C358.51883927 173.57024987 361.97964804 177.90464565 365.39547729 182.28088379 C369.33732881 187.32942218 373.34578846 192.3184551 377.39547729 197.28088379 C381.92301802 202.83006438 386.39063591 208.42004016 390.80172729 214.06213379 C394.13702457 218.32551379 397.50805163 222.55882774 400.89547729 226.78088379 C404.73812058 231.57031888 408.55101447 236.38090952 412.33297729 241.21838379 C416.92653041 247.09099519 421.6171401 252.88061956 426.32955933 258.65808105 C429.71260365 262.81036886 433.04271278 266.99630718 436.31344604 271.23791504 C440.95356406 277.22996868 445.74635976 283.10141196 450.53366089 288.97595215 C455.6598186 295.26741751 460.73503846 301.59136554 465.72848511 307.98864746 C469.2487103 312.4869251 472.84455897 316.91977962 476.45797729 321.34338379 C496.36301924 345.79302301 496.36301924 345.79302301 497.33297729 353.96838379 C496.84734681 357.6453003 496.2249202 359.40790421 493.89547729 362.28088379 C488.24045688 366.5221491 484.16113044 367.42909858 477.25720215 367.41459656 C476.47160207 367.41686211 475.68600199 367.41912767 474.87659585 367.42146188 C472.23525116 367.42780882 469.59395769 367.42697204 466.9526062 367.42614746 C465.06195001 367.42913872 463.17129442 367.43254117 461.28063965 367.43632507 C456.13547716 367.44517755 450.99033129 367.44750385 445.84516191 367.44814086 C442.62801852 367.44885122 439.41087937 367.45098538 436.19373703 367.45363808 C424.96166465 367.46289903 413.72960415 367.46697245 402.49752808 367.46618652 C392.04411333 367.46558709 381.59075042 367.47611059 371.13734877 367.49193019 C362.15456673 367.50503739 353.17180155 367.51036901 344.18901002 367.50973111 C338.82808194 367.50947685 333.4671998 367.51228771 328.10628128 367.52290916 C323.05511785 367.53264246 318.00404376 367.53263367 312.95287704 367.52539253 C311.1071179 367.52435282 309.26135306 367.52667275 307.41560364 367.53275299 C282.19673614 367.61038943 260.94410364 362.2199327 242.08688354 344.61291504 C238.38689236 340.67549127 235.12175538 336.41552319 231.84860229 332.12463379 C228.78289641 328.10579458 225.59750308 324.19142686 222.39547729 320.28088379 C217.86693512 314.73253762 213.40030125 309.14170512 208.98922729 303.49963379 C205.65393002 299.23625379 202.28290296 295.00293984 198.89547729 290.78088379 C195.05283362 285.99144822 191.23997903 281.18082787 187.45797729 276.34338379 C182.95288806 270.58470451 178.35431584 264.90660069 173.73165894 259.24206543 C169.78306607 254.39534748 165.90685603 249.49721095 162.05953979 244.56994629 C158.55771274 240.09651404 154.9872505 235.68230825 151.39547729 231.28088379 C145.01393732 223.45744246 138.7734862 215.53016314 132.56149292 207.57189941 C126.69654124 200.06304887 120.75592704 192.62425851 114.73190308 185.24230957 C110.78317236 180.3955554 106.9069265 175.49730119 103.05953979 170.56994629 C99.55771483 166.09651671 95.98736565 161.68221177 92.39547729 157.28088379 C87.88853411 151.75829144 83.44763274 146.19119607 79.06173706 140.57214355 C75.54172584 136.07424533 71.94690841 131.64102677 68.33297729 127.21838379 C63.60582454 121.43093509 59.01707954 115.56269289 54.48532104 109.62072754 C51.0101968 105.10347311 47.38814767 100.7054804 43.78219604 96.29260254 C40.27211532 91.99151771 36.81130655 87.65712192 33.39547729 83.28088379 C29.45362698 78.23234693 25.44523109 73.24325816 21.39547729 68.28088379 C16.89016619 62.7602913 12.44620208 57.1986744 8.06832886 51.57653809 C5.60900089 48.42825895 3.11336658 45.31666309 0.56735229 42.23791504 C-17.56605539 20.29959147 -17.56605539 20.29959147 -17.45608521 10.34729004 C-16.81767733 6.5948704 -14.82662808 4.8792571 -12.10452271 2.28088379 C-8.362617 -0.29523644 -4.37442707 -0.00984735 0 0 Z " fill="#e66e51" transform="translate(23.104522705078125,356.7191162109375)"/>
<path d="M0 0 C0.79521704 -0.0060911 1.59043409 -0.01218221 2.40974861 -0.01845789 C5.05399958 -0.03500419 7.69776455 -0.03032403 10.34205627 -0.0255127 C12.24666846 -0.03285829 14.1512762 -0.04144595 16.05587769 -0.05117798 C21.21757737 -0.07336115 26.37911723 -0.07632592 31.54085803 -0.07443047 C35.86165716 -0.07431052 40.18242275 -0.08288546 44.50321251 -0.09120798 C54.70928227 -0.11043396 64.91527025 -0.11333023 75.12135315 -0.10656738 C85.61524306 -0.09994085 96.1087802 -0.12273693 106.60259861 -0.15988111 C115.63736622 -0.19068885 124.67202108 -0.20192577 133.7068401 -0.1980443 C139.09138523 -0.19598667 144.47565634 -0.20130131 149.86015129 -0.22593689 C154.93371362 -0.24838241 160.00670846 -0.24617975 165.08027458 -0.22600937 C166.92919872 -0.22262956 168.77816238 -0.2275555 170.62703323 -0.24199295 C185.74136778 -0.35175044 199.62842847 2.0269474 213.14894104 9.20690918 C214.13120667 9.71447754 214.13120667 9.71447754 215.13331604 10.2322998 C220.88875627 13.30300312 225.90344879 16.97908417 230.71144104 21.39440918 C231.37015198 21.9847998 232.02886292 22.57519043 232.70753479 23.18347168 C237.9662203 28.15647407 242.31410896 33.83703518 246.72315979 39.55065918 C249.81780549 43.55489022 253.00798985 47.47702979 256.21144104 51.39440918 C260.71964372 56.91730496 265.1598777 62.48626666 269.54737854 68.10534668 C273.04920559 72.57877893 276.61966783 76.99298472 280.21144104 81.39440918 C286.59298102 89.21785051 292.83343213 97.14512983 299.04542542 105.10339355 C304.91037709 112.6122441 310.8509913 120.05103446 316.87501526 127.4329834 C320.825403 132.28177143 324.70410558 137.18145745 328.55177307 142.11193848 C332.00518764 146.52546451 335.53637304 150.87093212 339.08644104 155.20690918 C343.63771805 160.76995706 348.05761512 166.41616409 352.39894104 172.14440918 C356.87583887 178.05109465 361.47837195 183.79095784 366.26222229 189.45300293 C368.91318149 192.63669078 371.47654036 195.87784436 374.02394104 199.14440918 C378.02735478 204.27730151 382.09501932 209.35170159 386.21144104 214.39440918 C391.68028768 221.1003144 397.06850997 227.86277214 402.38087463 234.6932373 C403.74759778 236.44063673 405.1288056 238.17583114 406.51222229 239.91003418 C407.41219823 241.0504727 408.31194652 242.19109091 409.21144104 243.33190918 C410.40253479 244.83044434 410.40253479 244.83044434 411.61769104 246.35925293 C415.02430369 251.29757015 417.6276393 256.24279227 416.71144104 262.39440918 C414.40208165 266.75653247 412.2003305 269.31419211 407.71144104 271.39440918 C403.42834152 272.51137383 399.21172433 272.5426857 394.81488037 272.5415802 C394.02560459 272.54525689 393.23632881 272.54893358 392.42313558 272.55272168 C389.78119365 272.56372493 387.13929109 272.56759673 384.49732971 272.57141113 C382.60139339 272.5776786 380.7054583 272.58432565 378.80952454 272.59132385 C372.58282828 272.61234287 366.35613186 272.6227281 360.12940979 272.63269043 C357.98113301 272.63673958 355.83285637 272.64085655 353.68457985 272.64504051 C343.58463344 272.66409189 333.4846943 272.67831986 323.38473338 272.68665248 C311.75384316 272.69640799 300.12314411 272.72268366 288.49232119 272.76315337 C279.48652307 272.79340534 270.48077945 272.80813017 261.47493154 272.81143349 C256.1043682 272.81377471 250.73400908 272.82261293 245.3635006 272.84789467 C240.30156128 272.87133797 235.23995825 272.87534385 230.17797852 272.86513329 C228.33185514 272.86464165 226.48571429 272.87085056 224.63964272 272.88468933 C210.22055645 272.98662775 196.34400517 271.65016181 183.39894104 264.64440918 C182.74288879 264.30224365 182.08683655 263.96007812 181.41090393 263.60754395 C169.17825852 257.05963041 160.13037941 248.77808834 151.82228088 237.78405762 C148.40293138 233.25975991 144.86514018 228.84574145 141.27394104 224.45690918 C137.20190829 219.47463639 133.17066641 214.46682696 129.21144104 209.39440918 C125.26958833 204.34586925 121.2610649 199.35689219 117.21144104 194.39440918 C110.82990106 186.57096785 104.58944995 178.64368853 98.37745667 170.6854248 C92.51250499 163.17657426 86.57189078 155.7377839 80.54786682 148.35583496 C76.59913611 143.5090808 72.72289024 138.61082658 68.87550354 133.68347168 C65.37367857 129.2100421 61.8033294 124.79573716 58.21144104 120.39440918 C53.70384131 114.87101233 49.26301462 109.30256482 44.87550354 103.68347168 C41.37367649 99.21003943 37.80321425 94.79583364 34.21144104 90.39440918 C27.82990106 82.57096785 21.58944995 74.64368853 15.37745667 66.6854248 C14.03168776 64.96244769 12.68456586 63.24054352 11.33644104 61.51940918 C10.66222107 60.65847656 10.66222107 60.65847656 9.97438049 59.78015137 C6.99825277 55.99397512 3.97178164 52.25269158 0.91920471 48.5279541 C-4.15374551 42.3348748 -9.13926738 36.08673082 -13.97605896 29.70690918 C-14.48129089 29.04771484 -14.98652283 28.38852051 -15.50706482 27.70935059 C-19.40862976 22.51218937 -21.87629455 18.14072474 -21.65965271 11.38659668 C-20.99675231 7.82786821 -19.06127674 5.53645857 -16.28855896 3.39440918 C-10.96308184 0.6433527 -5.91472163 -0.04330359 0 0 Z " fill="#e66e51" transform="translate(381.28855895996094,451.6055908203125)"/>
<path d="M0 0 C1.19388391 -0.00913666 1.19388391 -0.00913666 2.41188669 -0.01845789 C5.05847151 -0.03500423 7.70457075 -0.03032405 10.35119629 -0.0255127 C12.25743099 -0.03285823 14.16366124 -0.04144587 16.06988525 -0.05117798 C21.23564986 -0.07336029 26.40125478 -0.07632601 31.56706047 -0.07443047 C35.89043919 -0.07431053 40.21378437 -0.08288491 44.53715372 -0.09120798 C54.74797723 -0.11043315 64.95871901 -0.11333031 75.16955566 -0.10656738 C85.67141782 -0.09993887 96.17292764 -0.12274515 106.67471838 -0.15988111 C115.71456586 -0.19067697 124.75430064 -0.20192711 133.79419947 -0.1980443 C139.182625 -0.19598568 144.57077677 -0.20131705 149.95915222 -0.22593689 C155.0351738 -0.24836302 160.11062789 -0.24619546 165.18665314 -0.22600937 C167.03760986 -0.22262634 168.88860596 -0.22756985 170.73950958 -0.24199295 C182.71163614 -0.32875959 192.4616063 1.13795183 203.70471191 5.39440918 C204.81403831 5.79362831 205.92336472 6.19284744 207.06630707 6.60416412 C224.20906796 12.91459326 235.47068092 25.47460564 246.29016113 39.55651855 C248.53597597 42.47444988 250.80614496 45.3730772 253.07971191 48.26940918 C253.75223999 49.12719971 253.75223999 49.12719971 254.43835449 50.00231934 C258.52251337 55.19562248 262.69280522 60.31701976 266.8704834 65.43518066 C270.34341839 69.69711553 273.76283397 73.99553925 277.14221191 78.33190918 C281.24409114 83.59196608 285.45049229 88.75691281 289.70471191 93.89440918 C294.41768624 99.58590858 299.04924035 105.32765364 303.59143066 111.15612793 C307.07325707 115.61530912 310.62747867 120.01151167 314.20471191 124.39440918 C342.33416994 158.90408686 342.33416994 158.90408686 342.07580566 168.14440918 C341.43192205 172.04837719 339.62414314 173.83990686 336.70471191 176.39440918 C331.35075925 179.14508145 326.30586835 179.83080324 320.36473083 179.78208923 C319.56401911 179.78747477 318.76330738 179.79286031 317.93833166 179.79840904 C315.27558178 179.8126294 312.61333321 179.80559953 309.95056152 179.79846191 C308.03285322 179.80416884 306.11514831 179.81113435 304.19744873 179.81925964 C299.00075091 179.83717734 293.80422211 179.83602441 288.6075027 179.83031726 C284.25917845 179.82722124 279.91088647 179.83332296 275.56256682 179.83935601 C265.29424728 179.85339713 255.02601093 179.85184535 244.75769043 179.8404541 C234.19336953 179.82899281 223.62930308 179.84301608 213.06501573 179.86985058 C203.97338201 179.89207283 194.88182776 179.89862971 185.79016882 179.89277416 C180.3699631 179.88941661 174.94992016 179.89173851 169.52973747 179.90902519 C164.42505056 179.9245948 159.32073714 179.92042857 154.21606445 179.90172005 C152.35340504 179.8980607 150.49071736 179.90106411 148.62808418 179.91160583 C134.27977252 179.98654315 121.22593538 178.46047011 108.32971191 171.58190918 C107.66109131 171.23426514 106.9924707 170.88662109 106.30358887 170.52844238 C91.97398416 162.88563827 81.525121 150.93656749 71.97277832 138.08581543 C69.82233687 135.21745609 67.60883112 132.39926086 65.39221191 129.58190918 C64.93975098 129.00593994 64.48729004 128.4299707 64.02111816 127.83654785 C59.91752148 122.63039613 55.73237621 117.49193878 51.54138184 112.3560791 C47.59251329 107.5092887 43.71623158 102.61091682 39.86877441 97.68347168 C36.36694945 93.2100421 32.79660027 88.79573716 29.20471191 84.39440918 C24.69711219 78.87101233 20.2562855 73.30256482 15.86877441 67.68347168 C12.36694321 63.21003412 8.79625461 58.7960267 5.20471191 54.39440918 C-21.97600473 21.03954572 -21.97600473 21.03954572 -21.66638184 11.38659668 C-21.00347961 7.8278584 -19.06799194 5.53648291 -16.29528809 3.39440918 C-10.9677171 0.64189928 -5.91708751 -0.04328035 0 0 Z " fill="#e7c269" transform="translate(732.2952880859375,544.6055908203125)"/>
</svg>
